<?xml version="1.0" encoding="UTF-8"?>
<!DOCTYPE svg PUBLIC "-//W3C//DTD SVG 1.1//EN" "http://www.w3.org/Graphics/SVG/1.1/DTD/svg11.dtd">
<svg version="1.2" width="19mm" height="19mm" viewBox="0 0 1900 1900" preserveAspectRatio="xMidYMid" fill-rule="evenodd" stroke-width="28.222" stroke-linejoin="round" xmlns="http://www.w3.org/2000/svg" xmlns:ooo="http://xml.openoffice.org/svg/export" xmlns:xlink="http://www.w3.org/1999/xlink" xmlns:presentation="http://sun.com/xmlns/staroffice/presentation" xmlns:smil="http://www.w3.org/2001/SMIL20/" xmlns:anim="urn:oasis:names:tc:opendocument:xmlns:animation:1.0" xml:space="preserve">
 <defs class="ClipPathGroup">
  <clipPath id="presentation_clip_path" clipPathUnits="userSpaceOnUse">
   <rect x="0" y="0" width="1900" height="1900"/>
  </clipPath>
  <clipPath id="presentation_clip_path_shrink" clipPathUnits="userSpaceOnUse">
   <rect x="1" y="1" width="1897" height="1897"/>
  </clipPath>
 </defs>
 <defs class="TextShapeIndex">
  <g ooo:slide="id1" ooo:id-list="id3 id4 id5 id6 id7 id8 id9 id10 id11 id12 id13 id14"/>
 </defs>
 <defs class="EmbeddedBulletChars">
  <g id="bullet-char-template-57356" transform="scale(0.00048828125,-0.00048828125)">
   <path d="M 580,1141 L 1163,571 580,0 -4,571 580,1141 Z"/>
  </g>
  <g id="bullet-char-template-57354" transform="scale(0.00048828125,-0.00048828125)">
   <path d="M 8,1128 L 1137,1128 1137,0 8,0 8,1128 Z"/>
  </g>
  <g id="bullet-char-template-10146" transform="scale(0.00048828125,-0.00048828125)">
   <path d="M 174,0 L 602,739 174,1481 1456,739 174,0 Z M 1358,739 L 309,1346 659,739 1358,739 Z"/>
  </g>
  <g id="bullet-char-template-10132" transform="scale(0.00048828125,-0.00048828125)">
   <path d="M 2015,739 L 1276,0 717,0 1260,543 174,543 174,936 1260,936 717,1481 1274,1481 2015,739 Z"/>
  </g>
  <g id="bullet-char-template-10007" transform="scale(0.00048828125,-0.00048828125)">
   <path d="M 0,-2 C -7,14 -16,27 -25,37 L 356,567 C 262,823 215,952 215,954 215,979 228,992 255,992 264,992 276,990 289,987 310,991 331,999 354,1012 L 381,999 492,748 772,1049 836,1024 860,1049 C 881,1039 901,1025 922,1006 886,937 835,863 770,784 769,783 710,716 594,584 L 774,223 C 774,196 753,168 711,139 L 727,119 C 717,90 699,76 672,76 641,76 570,178 457,381 L 164,-76 C 142,-110 111,-127 72,-127 30,-127 9,-110 8,-76 1,-67 -2,-52 -2,-32 -2,-23 -1,-13 0,-2 Z"/>
  </g>
  <g id="bullet-char-template-10004" transform="scale(0.00048828125,-0.00048828125)">
   <path d="M 285,-33 C 182,-33 111,30 74,156 52,228 41,333 41,471 41,549 55,616 82,672 116,743 169,778 240,778 293,778 328,747 346,684 L 369,508 C 377,444 397,411 428,410 L 1163,1116 C 1174,1127 1196,1133 1229,1133 1271,1133 1292,1118 1292,1087 L 1292,965 C 1292,929 1282,901 1262,881 L 442,47 C 390,-6 338,-33 285,-33 Z"/>
  </g>
  <g id="bullet-char-template-9679" transform="scale(0.00048828125,-0.00048828125)">
   <path d="M 813,0 C 632,0 489,54 383,161 276,268 223,411 223,592 223,773 276,916 383,1023 489,1130 632,1184 813,1184 992,1184 1136,1130 1245,1023 1353,916 1407,772 1407,592 1407,412 1353,268 1245,161 1136,54 992,0 813,0 Z"/>
  </g>
  <g id="bullet-char-template-8226" transform="scale(0.00048828125,-0.00048828125)">
   <path d="M 346,457 C 273,457 209,483 155,535 101,586 74,649 74,723 74,796 101,859 155,911 209,963 273,989 346,989 419,989 480,963 531,910 582,859 608,796 608,723 608,648 583,586 532,535 482,483 420,457 346,457 Z"/>
  </g>
  <g id="bullet-char-template-8211" transform="scale(0.00048828125,-0.00048828125)">
   <path d="M -4,459 L 1135,459 1135,606 -4,606 -4,459 Z"/>
  </g>
  <g id="bullet-char-template-61548" transform="scale(0.00048828125,-0.00048828125)">
   <path d="M 173,740 C 173,903 231,1043 346,1159 462,1274 601,1332 765,1332 928,1332 1067,1274 1183,1159 1299,1043 1357,903 1357,740 1357,577 1299,437 1183,322 1067,206 928,148 765,148 601,148 462,206 346,322 231,437 173,577 173,740 Z"/>
  </g>
 </defs>
 <defs class="TextEmbeddedBitmaps"/>
 <g>
  <g id="id2" class="Master_Slide">
   <g id="bg-id2" class="Background"/>
   <g id="bo-id2" class="BackgroundObjects"/>
  </g>
 </g>
 <g class="SlideGroup">
  <g>
   <g id="container-id1">
    <g id="id1" class="Slide" clip-path="url(#presentation_clip_path)">
     <g class="Page">
      <g class="com.sun.star.drawing.ClosedBezierShape">
       <g id="id3">
        <rect class="BoundingBox" stroke="none" fill="none" x="-1" y="-1" width="805" height="1124"/>
        <path fill="rgb(0,0,0)" stroke="none" d="M 260,529 C 121,476 51,394 51,285 51,199 88,130 162,78 235,27 329,0 437,0 538,0 617,19 676,54 734,90 764,132 764,183 764,208 755,231 736,252 719,271 697,281 673,281 632,281 601,250 574,191 539,107 487,65 416,65 360,65 314,86 278,126 241,166 223,222 223,294 223,436 290,506 425,506 439,506 455,504 473,501 504,497 531,493 548,493 590,493 611,508 611,535 611,564 590,579 546,579 531,579 508,577 476,571 453,567 436,564 422,564 281,564 209,642 209,801 209,875 228,938 265,984 304,1032 357,1055 423,1055 508,1055 564,1007 590,911 604,862 620,827 638,808 655,789 678,780 708,780 733,780 754,789 773,808 792,825 803,850 803,879 803,950 766,1007 694,1055 622,1099 534,1122 432,1122 320,1122 218,1093 130,1034 44,976 0,898 0,799 0,676 86,587 260,529 Z"/>
       </g>
      </g>
      <g class="Group">
       <g class="com.sun.star.drawing.ClosedBezierShape">
        <g id="id4">
         <rect class="BoundingBox" stroke="none" fill="none" x="495" y="612" width="600" height="525"/>
         <path fill="rgb(98,167,59)" stroke="none" d="M 807,1136 C 995,1056 1125,852 1086,766 1021,781 968,823 909,850 931,760 931,685 923,612 861,666 765,711 733,871 680,799 617,732 496,739 523,829 607,1024 729,1052 L 741,1024 C 655,977 592,854 545,773 661,810 712,918 736,931 763,918 782,814 804,790 825,766 837,730 891,681 892,794 860,854 845,941 L 864,954 C 901,893 980,871 1039,831 1037,947 880,1048 784,1121 L 807,1136 Z"/>
        </g>
       </g>
       <g class="com.sun.star.drawing.ClosedBezierShape">
        <g id="id5">
         <rect class="BoundingBox" stroke="none" fill="none" x="1050" y="554" width="595" height="661"/>
         <path fill="rgb(206,24,30)" stroke="none" d="M 1417,1213 C 1482,1129 1535,1071 1644,1033 1581,1036 1604,912 1556,881 1493,856 1470,914 1435,977 1410,1023 1356,1056 1329,997 1338,933 1361,879 1356,805 1344,659 1176,569 1072,554 L 1071,554 1050,585 C 1203,645 1276,691 1319,805 1317,879 1301,937 1287,1000 1292,1031 1317,1056 1340,1059 1380,1079 1405,1056 1423,1046 1475,1002 1484,919 1526,919 1560,947 1558,992 1574,1018 1500,1054 1447,1117 1396,1180 L 1417,1213 Z"/>
        </g>
       </g>
       <g class="com.sun.star.drawing.ClosedBezierShape">
        <g id="id6">
         <rect class="BoundingBox" stroke="none" fill="none" x="739" y="1541" width="39" height="159"/>
         <path fill="rgb(0,0,0)" stroke="none" d="M 740,1698 C 740,1688 741,1678 742,1666 742,1654 742,1639 742,1620 742,1602 742,1587 742,1575 741,1562 740,1551 740,1541 743,1541 746,1542 749,1542 752,1543 755,1543 758,1543 761,1543 764,1543 767,1542 770,1542 774,1541 776,1541 775,1551 775,1562 775,1575 774,1587 774,1602 774,1620 774,1639 774,1655 775,1667 775,1678 775,1689 776,1698 773,1698 770,1698 767,1698 763,1698 761,1697 758,1697 755,1697 752,1698 750,1698 747,1698 743,1698 740,1698 Z"/>
        </g>
       </g>
       <g class="com.sun.star.drawing.ClosedBezierShape">
        <g id="id7">
         <rect class="BoundingBox" stroke="none" fill="none" x="831" y="1541" width="103" height="159"/>
         <path fill="rgb(0,0,0)" stroke="none" d="M 881,1608 C 884,1608 888,1606 890,1603 895,1598 898,1590 898,1580 898,1571 895,1565 891,1561 888,1558 885,1556 881,1555 L 881,1541 882,1541 C 898,1541 909,1544 917,1550 925,1557 928,1565 928,1578 928,1588 925,1597 917,1603 910,1610 899,1613 886,1614 L 886,1616 C 901,1616 913,1618 921,1625 928,1632 932,1642 932,1655 932,1668 928,1679 919,1687 910,1695 898,1698 882,1698 L 881,1698 881,1686 C 885,1684 889,1681 892,1678 897,1673 899,1665 899,1654 899,1644 896,1636 892,1631 889,1627 885,1625 881,1624 L 881,1608 Z M 864,1610 C 864,1610 865,1610 866,1611 L 868,1611 C 873,1611 877,1610 881,1608 L 881,1624 C 877,1623 874,1623 870,1623 L 866,1623 864,1623 864,1652 C 864,1658 864,1663 864,1669 L 864,1685 C 866,1686 867,1686 869,1686 L 872,1686 C 875,1686 878,1686 881,1686 L 881,1698 C 877,1698 871,1698 864,1698 L 845,1698 C 843,1698 839,1698 833,1698 L 831,1698 C 832,1692 832,1684 832,1675 833,1667 833,1655 833,1640 L 833,1620 C 833,1596 833,1580 832,1569 832,1559 832,1549 831,1541 L 847,1541 C 851,1542 855,1542 857,1542 861,1542 865,1542 870,1541 L 881,1541 881,1555 C 878,1554 875,1554 872,1554 L 869,1554 C 869,1554 867,1554 865,1554 864,1558 864,1562 864,1567 L 864,1583 864,1610 Z"/>
        </g>
       </g>
       <g class="com.sun.star.drawing.ClosedBezierShape">
        <g id="id8">
         <rect class="BoundingBox" stroke="none" fill="none" x="962" y="1538" width="135" height="162"/>
         <path fill="rgb(0,0,0)" stroke="none" d="M 1021,1539 L 1021,1539 1026,1539 C 1027,1539 1028,1539 1030,1539 1031,1539 1032,1539 1034,1539 L 1037,1539 C 1046,1564 1055,1590 1064,1616 1074,1643 1085,1670 1096,1698 1093,1698 1090,1698 1088,1698 L 1078,1698 1068,1698 C 1065,1698 1063,1698 1059,1698 1058,1693 1056,1686 1054,1680 1052,1673 1049,1665 1046,1652 1042,1652 1039,1652 1036,1652 L 1021,1652 1021,1637 1028,1637 1040,1637 C 1037,1628 1034,1619 1031,1610 1028,1601 1025,1593 1021,1585 L 1021,1585 1021,1539 Z M 962,1698 C 972,1674 982,1648 992,1621 1002,1596 1012,1568 1021,1539 L 1021,1585 C 1017,1593 1014,1601 1011,1610 1008,1618 1005,1628 1002,1637 L 1003,1637 1021,1637 1021,1652 1005,1652 C 1002,1652 999,1652 996,1652 992,1665 989,1675 987,1681 985,1688 983,1693 981,1698 979,1698 978,1698 976,1698 L 972,1698 C 970,1698 967,1698 963,1698 L 962,1698 Z"/>
        </g>
       </g>
       <g class="com.sun.star.drawing.ClosedBezierShape">
        <g id="id9">
         <rect class="BoundingBox" stroke="none" fill="none" x="1123" y="1541" width="177" height="159"/>
         <path fill="rgb(0,0,0)" stroke="none" d="M 1124,1698 C 1126,1687 1127,1676 1128,1668 1129,1660 1131,1654 1131,1650 L 1145,1541 C 1146,1541 1147,1541 1149,1542 L 1153,1542 1158,1542 C 1160,1541 1161,1541 1163,1541 1170,1559 1178,1578 1187,1596 1195,1613 1203,1632 1212,1649 1220,1632 1228,1614 1236,1596 1244,1579 1252,1560 1260,1541 1261,1541 1263,1541 1264,1542 L 1269,1542 1274,1542 C 1276,1541 1277,1541 1279,1541 L 1291,1651 C 1292,1663 1294,1673 1295,1680 1296,1687 1297,1693 1298,1698 1294,1698 1291,1698 1288,1698 1286,1698 1282,1697 1280,1697 1277,1697 1274,1698 1272,1698 1269,1698 1266,1698 1262,1698 L 1262,1696 C 1262,1680 1261,1670 1261,1666 L 1254,1593 C 1246,1609 1238,1626 1230,1644 1222,1661 1214,1680 1206,1698 1205,1698 1205,1698 1205,1698 L 1202,1698 1199,1698 C 1198,1698 1198,1698 1198,1698 1189,1680 1182,1662 1173,1645 1166,1628 1158,1612 1150,1596 L 1145,1644 1145,1646 C 1143,1671 1141,1688 1141,1698 1139,1698 1138,1698 1136,1698 1135,1698 1134,1697 1133,1697 1131,1697 1130,1698 1128,1698 1127,1698 1126,1698 1124,1698 Z"/>
        </g>
       </g>
       <g class="com.sun.star.drawing.ClosedBezierShape">
        <g id="id10">
         <rect class="BoundingBox" stroke="none" fill="none" x="1326" y="1538" width="135" height="162"/>
         <path fill="rgb(0,0,0)" stroke="none" d="M 1385,1539 L 1385,1539 1390,1539 C 1391,1539 1392,1539 1394,1539 1395,1539 1397,1539 1398,1539 L 1402,1539 C 1410,1564 1419,1590 1429,1616 1439,1643 1449,1670 1460,1698 1457,1698 1454,1698 1452,1698 L 1442,1698 1432,1698 C 1429,1698 1427,1698 1424,1698 1422,1693 1420,1686 1419,1680 1416,1673 1413,1665 1410,1652 1407,1652 1403,1652 1400,1652 L 1385,1652 1385,1637 1392,1637 1404,1637 C 1401,1628 1398,1619 1395,1610 1392,1601 1389,1593 1385,1585 L 1385,1585 1385,1539 Z M 1326,1698 C 1336,1674 1346,1648 1356,1621 1366,1596 1376,1568 1385,1539 L 1385,1585 C 1381,1593 1378,1601 1375,1610 1372,1618 1369,1628 1366,1637 L 1367,1637 1385,1637 1385,1652 1370,1652 C 1366,1652 1363,1652 1360,1652 1356,1665 1353,1675 1351,1681 1349,1688 1347,1693 1345,1698 1343,1698 1342,1698 1340,1698 L 1336,1698 C 1334,1698 1331,1698 1328,1698 L 1326,1698 Z"/>
        </g>
       </g>
       <g class="com.sun.star.drawing.ClosedBezierShape">
        <g id="id11">
         <rect class="BoundingBox" stroke="none" fill="none" x="812" y="1776" width="138" height="125"/>
         <path fill="rgb(0,0,0)" stroke="none" d="M 812,1900 C 814,1891 815,1883 815,1876 817,1869 817,1865 817,1862 L 828,1777 832,1777 C 833,1778 834,1778 835,1778 837,1778 838,1778 839,1777 L 842,1777 C 849,1791 855,1805 861,1819 867,1833 874,1847 881,1861 888,1847 894,1834 900,1820 906,1806 913,1791 919,1777 L 922,1777 C 923,1778 925,1778 926,1778 928,1778 929,1778 930,1777 L 934,1777 943,1863 C 945,1873 945,1880 946,1886 947,1891 948,1896 948,1900 946,1899 943,1899 941,1899 939,1899 936,1899 935,1899 933,1899 930,1899 928,1899 926,1899 923,1899 921,1900 L 921,1898 C 920,1886 920,1878 920,1875 L 914,1817 C 908,1830 902,1843 896,1857 889,1870 883,1885 876,1900 876,1900 876,1899 875,1899 L 873,1899 871,1899 C 871,1899 870,1900 870,1900 864,1885 857,1871 851,1858 845,1844 839,1832 833,1820 L 829,1858 829,1859 C 827,1878 825,1892 825,1900 824,1899 823,1899 822,1899 821,1899 820,1899 819,1899 818,1899 817,1899 816,1899 815,1899 814,1899 812,1900 Z"/>
        </g>
       </g>
       <g class="com.sun.star.drawing.ClosedBezierShape">
        <g id="id12">
         <rect class="BoundingBox" stroke="none" fill="none" x="1051" y="1776" width="138" height="125"/>
         <path fill="rgb(0,0,0)" stroke="none" d="M 1052,1900 C 1053,1891 1054,1883 1055,1876 1056,1869 1057,1865 1057,1862 L 1067,1777 1071,1777 C 1072,1778 1073,1778 1075,1778 1076,1778 1077,1778 1079,1777 L 1082,1777 C 1088,1791 1094,1805 1101,1819 1107,1833 1114,1847 1120,1861 1127,1847 1133,1834 1140,1820 1146,1806 1152,1791 1158,1777 L 1161,1777 C 1163,1778 1164,1778 1166,1778 1167,1778 1168,1778 1170,1777 L 1173,1777 1183,1863 C 1184,1873 1185,1880 1185,1886 1187,1891 1187,1896 1188,1900 1185,1899 1183,1899 1180,1899 1178,1899 1176,1899 1174,1899 1172,1899 1170,1899 1167,1899 1165,1899 1163,1899 1160,1900 L 1160,1898 C 1160,1886 1159,1878 1159,1875 L 1153,1817 C 1147,1830 1141,1843 1135,1857 1129,1870 1123,1885 1116,1900 1116,1900 1115,1899 1114,1899 L 1113,1899 1111,1899 C 1110,1899 1109,1900 1109,1900 1103,1885 1096,1871 1091,1858 1084,1844 1078,1832 1072,1820 L 1068,1858 1068,1859 C 1066,1878 1065,1892 1065,1900 1064,1899 1062,1899 1062,1899 1061,1899 1059,1899 1059,1899 1057,1899 1056,1899 1055,1899 1054,1899 1053,1899 1052,1900 Z"/>
        </g>
       </g>
       <g class="com.sun.star.drawing.ClosedBezierShape">
        <g id="id13">
         <rect class="BoundingBox" stroke="none" fill="none" x="1283" y="1773" width="106" height="128"/>
         <path fill="rgb(0,0,0)" stroke="none" d="M 1329,1775 L 1329,1774 C 1330,1775 1331,1775 1333,1775 L 1336,1775 1339,1775 C 1340,1775 1341,1775 1341,1774 1348,1794 1355,1815 1363,1836 1371,1857 1379,1878 1388,1900 1386,1899 1383,1899 1381,1899 L 1373,1899 1366,1899 C 1363,1899 1361,1899 1359,1900 1358,1895 1356,1891 1355,1886 1353,1881 1351,1873 1348,1863 L 1341,1863 1329,1863 1329,1852 1334,1852 1344,1852 C 1341,1844 1340,1837 1337,1831 1334,1824 1332,1817 1329,1810 1329,1811 1329,1811 1329,1811 L 1329,1775 Z M 1283,1900 C 1291,1881 1299,1860 1306,1839 1314,1819 1321,1798 1329,1775 L 1329,1811 C 1326,1817 1324,1824 1321,1830 1319,1837 1316,1844 1314,1852 L 1329,1852 1329,1863 1317,1863 1309,1863 C 1306,1873 1304,1881 1302,1886 1301,1891 1299,1896 1297,1900 1296,1899 1295,1899 1294,1899 L 1291,1899 C 1289,1899 1287,1899 1284,1900 L 1283,1900 Z"/>
        </g>
       </g>
       <g class="com.sun.star.drawing.ClosedBezierShape">
        <g id="id14">
         <rect class="BoundingBox" stroke="none" fill="none" x="710" y="1186" width="991" height="191"/>
         <path fill="rgb(27,117,188)" stroke="none" d="M 1672,1229 C 1622,1275 1575,1306 1505,1324 1387,1314 1385,1198 1298,1208 1237,1206 1122,1342 1086,1324 1032,1357 948,1182 896,1190 854,1167 765,1244 710,1327 L 731,1352 C 773,1298 837,1229 870,1231 934,1213 973,1365 1084,1375 1197,1347 1244,1249 1301,1252 1355,1236 1392,1365 1505,1368 1597,1347 1644,1296 1700,1249 L 1672,1229 Z"/>
        </g>
       </g>
      </g>
     </g>
    </g>
   </g>
  </g>
 </g>
</svg>